<?xml version="1.0" encoding="UTF-8"?>
<svg width="47px" height="47px" viewBox="0 0 47 47" version="1.1" xmlns="http://www.w3.org/2000/svg" xmlns:xlink="http://www.w3.org/1999/xlink">
    <!-- Generator: Sketch 42 (36781) - http://www.bohemiancoding.com/sketch -->
    <title>controlls</title>
    <desc>Created with Sketch.</desc>
    <defs></defs>
    <g id="Page-1" stroke="none" stroke-width="1" fill="none" fill-rule="evenodd">
        <g id="controlls" transform="translate(0.250000, 0.000000)" fill="#6D7577">
            <path d="M39.7813,22.4442 L22.4573,39.7682 C19.3333,42.8922 14.2673,42.8922 11.1433,39.7682 L5.8403,34.4652 L34.4783,5.8272 L39.7813,11.1302 C42.9053,14.2542 42.9053,19.3202 39.7813,22.4442 M42.7803,8.4852 L34.2943,0.0002 L0.0003,34.2952 L8.4853,42.7802 C13.1713,47.4662 20.7693,47.4662 25.4563,42.7802 L42.7803,25.4562 C47.4663,20.7692 47.4663,13.1712 42.7803,8.4852" id="Fill-1"></path>
            <path d="M35.7507,16.8795 C35.7507,17.9845 34.8557,18.8795 33.7507,18.8795 C32.6457,18.8795 31.7507,17.9845 31.7507,16.8795 C31.7507,15.7745 32.6457,14.8795 33.7507,14.8795 C34.8557,14.8795 35.7507,15.7745 35.7507,16.8795" id="Fill-3"></path>
            <path d="M29.7507,16.8795 C29.7507,17.9845 28.8557,18.8795 27.7507,18.8795 C26.6457,18.8795 25.7507,17.9845 25.7507,16.8795 C25.7507,15.7745 26.6457,14.8795 27.7507,14.8795 C28.8557,14.8795 29.7507,15.7745 29.7507,16.8795" id="Fill-5"></path>
            <path d="M35.7507,22.8795 C35.7507,23.9845 34.8557,24.8795 33.7507,24.8795 C32.6457,24.8795 31.7507,23.9845 31.7507,22.8795 C31.7507,21.7745 32.6457,20.8795 33.7507,20.8795 C34.8557,20.8795 35.7507,21.7745 35.7507,22.8795" id="Fill-7"></path>
            <path d="M29.7507,22.8795 C29.7507,23.9845 28.8557,24.8795 27.7507,24.8795 C26.6457,24.8795 25.7507,23.9845 25.7507,22.8795 C25.7507,21.7745 26.6457,20.8795 27.7507,20.8795 C28.8557,20.8795 29.7507,21.7745 29.7507,22.8795" id="Fill-9"></path>
            <path d="M23.584,30.8795 C23.584,33.0885 21.793,34.8795 19.584,34.8795 C17.375,34.8795 15.584,33.0885 15.584,30.8795 C15.584,28.6705 17.375,26.8795 19.584,26.8795 C21.793,26.8795 23.584,28.6705 23.584,30.8795" id="Fill-11"></path>
        </g>
    </g>
</svg>