<?xml version="1.0" encoding="UTF-8"?>
<svg width="42px" height="41px" viewBox="0 0 42 41" version="1.1" xmlns="http://www.w3.org/2000/svg" xmlns:xlink="http://www.w3.org/1999/xlink">
    <!-- Generator: Sketch 42 (36781) - http://www.bohemiancoding.com/sketch -->
    <title>eshop</title>
    <desc>Created with Sketch.</desc>
    <defs></defs>
    <g id="Page-1" stroke="none" stroke-width="1" fill="none" fill-rule="evenodd">
        <g id="eshop" fill="#FDA000">
            <path d="M5.042,36 L6.125,13 L12.042,13 L12.042,18 L16.042,18 L16.042,13 L26.042,13 L26.042,18 L30.042,18 L30.042,13 L36.125,13 L37.042,36 L5.042,36 Z M16.042,6.513 C16.042,5.132 17.165,4 18.546,4 L23.546,4 C24.927,4 26.042,5.132 26.042,6.513 L26.042,9 L16.042,9 L16.042,6.513 Z M40.125,9 L30.042,9 L30.042,5.013 C30.042,2.252 27.808,0 25.046,0 L17.046,0 C14.285,0 12.042,2.252 12.042,5.013 L12.042,9 L1.959,9 L0,41 L42,41 L40.125,9 Z" id="Fill-1"></path>
        </g>
    </g>
</svg>