<?xml version="1.0" encoding="UTF-8"?>
<svg width="38px" height="41px" viewBox="0 0 38 41" version="1.1" xmlns="http://www.w3.org/2000/svg" xmlns:xlink="http://www.w3.org/1999/xlink">
    <!-- Generator: Sketch 42 (36781) - http://www.bohemiancoding.com/sketch -->
    <title>power</title>
    <desc>Created with Sketch.</desc>
    <defs></defs>
    <g id="Page-1" stroke="none" stroke-width="1" fill="none" fill-rule="evenodd">
        <g id="power" fill="#6D7577">
            <path d="M26.1253,4.4093 L26.1253,9.4053 C30.5023,11.9013 33.4583,16.6013 33.4583,22.0003 C33.4583,30.0083 26.9663,36.5003 18.9583,36.5003 C10.9503,36.5003 4.5003,30.0083 4.5003,22.0003 C4.5003,16.4963 7.1253,11.7093 12.1253,9.2523 L12.1253,4.3173 C5.1253,7.0853 0.0003,13.9493 0.0003,22.0003 C0.0003,32.4933 8.4863,41.0003 18.9793,41.0003 C29.4723,41.0003 37.9693,32.4933 37.9693,22.0003 C37.9693,14.0443 33.0643,7.2393 26.1253,4.4093" id="Fill-1"></path>
            <polygon id="Fill-4" points="17.136 20 21.136 20 21.136 0 17.136 0"></polygon>
        </g>
    </g>
</svg>