<?xml version="1.0" encoding="UTF-8"?>
<svg width="42px" height="42px" viewBox="0 0 42 42" version="1.1" xmlns="http://www.w3.org/2000/svg" xmlns:xlink="http://www.w3.org/1999/xlink">
    <!-- Generator: Sketch 42 (36781) - http://www.bohemiancoding.com/sketch -->
    <title>settings</title>
    <desc>Created with Sketch.</desc>
    <defs></defs>
    <g id="Page-1" stroke="none" stroke-width="1" fill="none" fill-rule="evenodd">
        <g id="settings" fill="#6D7577">
            <path d="M20.875,31.7565 C14.938,31.7565 10.125,26.9435 10.125,21.0065 C10.125,15.0695 14.938,10.2565 20.875,10.2565 C26.812,10.2565 31.625,15.0695 31.625,21.0065 C31.625,26.9435 26.812,31.7565 20.875,31.7565 L20.875,31.7565 Z M42,23.0005 L42,19.0005 L35.726,19.0005 C35.373,16.0005 34.334,13.9385 32.79,11.9165 L37.138,7.5695 L34.31,4.7425 L30.024,9.0915 C28.002,7.5465 26,6.5085 23,6.1555 L23,0.0005 L19,0.0005 L19,6.1555 C16,6.5085 13.873,7.5475 11.851,9.0915 L7.471,4.7435 L4.627,7.5715 L8.968,11.9165 C7.424,13.9385 6.377,16.0005 6.024,19.0005 L0,19.0005 L0,23.0005 L6.024,23.0005 C6.377,26.0005 7.416,28.0685 8.96,30.0895 L4.612,34.4395 L7.44,37.2695 L11.851,32.9205 C13.873,34.4655 16,35.5045 19,35.8575 L19,42.0005 L23,42.0005 L23,35.8575 C26,35.5045 28.002,34.4655 30.024,32.9215 L34.341,37.2695 L37.154,34.4415 L32.798,30.0895 C34.342,28.0685 35.373,26.0005 35.726,23.0005 L42,23.0005 Z" id="Fill-1"></path>
        </g>
    </g>
</svg>