<?xml version="1.0" encoding="UTF-8"?>
<svg width="48px" height="33px" viewBox="0 0 48 33" version="1.1" xmlns="http://www.w3.org/2000/svg" xmlns:xlink="http://www.w3.org/1999/xlink">
    <!-- Generator: Sketch 42 (36781) - http://www.bohemiancoding.com/sketch -->
    <title>gallery</title>
    <desc>Created with Sketch.</desc>
    <defs></defs>
    <g id="Page-1" stroke="none" stroke-width="1" fill="none" fill-rule="evenodd">
        <g id="gallery" fill="#1373FF">
            <path d="M44,29 L38,29 L38,21 L37.997,21 C37.997,20.986 38,20.972 38,20.958 C38,17.656 34.642,14.979 30.5,14.979 C29.235,14.979 28.045,15.231 27,15.672 L27,15 L26.997,15 C26.997,14.986 27,14.972 27,14.958 C27,10.954 22.971,7.708 18,7.708 C13.029,7.708 9,10.954 9,14.958 C9,14.972 9.003,14.986 9.003,15 L9,15 L9,29 L4,29 L4,4 L44,4 L44,29 Z M13,29 L13,15 L13.005,15 C13.005,14.986 13,14.973 13,14.958 C13,12.734 15.239,10.931 18,10.931 C20.761,10.931 23,12.734 23,14.958 C23,14.973 22.995,14.986 22.995,15 L23,15 L23,21 L27.005,21 C27.034,19 28.585,18.21 30.5,18.21 C32.433,18.21 34,19.438 34,20.979 C34,20.993 33.995,20.986 33.995,21 L34,21 L34,29 L13,29 Z M0,33 L48,33 L48,0 L0,0 L0,33 Z" id="Page-1"></path>
        </g>
    </g>
</svg>